<svg preserveAspectRatio="none" overflow="visible" style="display: block;" width="22.1528" height="22.1528" viewBox="0 0 22.1528 22.1528" fill="none" xmlns="http://www.w3.org/2000/svg">
<g id="Bold / Essentional, UI / Cup Star">
<g id="Vector">
<path d="M20.3067 7.5341L20.3067 7.60105C20.3066 8.39554 20.3066 8.79279 20.1154 9.1178C19.9241 9.44281 19.5769 9.63574 18.8824 10.0216L18.1501 10.4284C18.6547 8.72251 18.8231 6.88964 18.8853 5.32218C18.888 5.25497 18.891 5.18694 18.894 5.11818L18.8961 5.07002C19.4973 5.27879 19.8348 5.43442 20.0454 5.72657C20.3067 6.08917 20.3067 6.57082 20.3067 7.5341Z" fill="white" fill-opacity="0.8"/>
<path d="M1.84607 7.5341L1.84607 7.60105C1.84609 8.39554 1.8461 8.79279 2.03734 9.1178C2.22858 9.44281 2.57584 9.63574 3.27035 10.0216L4.00301 10.4286C3.49836 8.72266 3.33 6.88971 3.26777 5.32218C3.2651 5.25497 3.26209 5.18694 3.25905 5.11818L3.25692 5.06991C2.65557 5.27873 2.31797 5.43437 2.10737 5.72657C1.84603 6.08917 1.84604 6.57082 1.84607 7.5341Z" fill="white" fill-opacity="0.8"/>
<path fill-rule="evenodd" clip-rule="evenodd" d="M11.0765 1.84606C12.7228 1.84606 14.0791 1.99106 15.1166 2.16612C16.1677 2.34346 16.6932 2.43213 17.1323 2.97293C17.5715 3.51373 17.5482 4.09824 17.5018 5.26726C17.3425 9.28059 16.4764 14.2934 11.7687 14.7369V17.9991H13.0888C13.5288 17.9991 13.9076 18.3097 13.9939 18.7411L14.1685 19.6144H16.6146C16.9969 19.6144 17.3069 19.9244 17.3069 20.3067C17.3069 20.689 16.9969 20.999 16.6146 20.999H5.53819C5.15586 20.999 4.84592 20.689 4.84592 20.3067C4.84592 19.9244 5.15586 19.6144 5.53819 19.6144H7.98423L8.15889 18.7411C8.24518 18.3097 8.624 17.9991 9.064 17.9991H10.3841V14.7368C5.67661 14.2932 4.81056 9.28051 4.65122 5.26726C4.60481 4.09824 4.58161 3.51373 5.02071 2.97293C5.45981 2.43213 5.98536 2.34346 7.03644 2.16612C8.07399 1.99106 9.43026 1.84606 11.0765 1.84606ZM11.9554 5.72176L11.8647 5.55897C11.514 4.92977 11.3386 4.61516 11.0764 4.61516C10.8142 4.61516 10.6388 4.92977 10.2881 5.55897L10.1973 5.72176C10.0977 5.90056 10.0478 5.98996 9.97012 6.04895C9.89241 6.10793 9.79564 6.12983 9.60209 6.17362L9.42588 6.21349C8.74477 6.3676 8.40421 6.44465 8.32319 6.7052C8.24217 6.96575 8.47434 7.23724 8.93867 7.78022L9.0588 7.92069C9.19075 8.07499 9.25673 8.15214 9.28641 8.24758C9.31609 8.34303 9.30611 8.44596 9.28616 8.65183L9.268 8.83925C9.1978 9.5637 9.1627 9.92593 9.37482 10.087C9.58694 10.248 9.9058 10.1012 10.5435 9.80754L10.7085 9.73158C10.8897 9.64814 10.9803 9.60642 11.0764 9.60642C11.1724 9.60642 11.263 9.64814 11.4443 9.73158L11.6093 9.80754C12.247 10.1012 12.5658 10.248 12.778 10.087C12.9901 9.92593 12.955 9.5637 12.8848 8.83925L12.8666 8.65183C12.8467 8.44596 12.8367 8.34303 12.8664 8.24758C12.8961 8.15214 12.962 8.07499 13.094 7.92069L13.2141 7.78022C13.6784 7.23724 13.9106 6.96575 13.8296 6.7052C13.7486 6.44465 13.408 6.3676 12.7269 6.21349L12.5507 6.17362C12.3571 6.12983 12.2604 6.10793 12.1827 6.04895C12.105 5.98996 12.0551 5.90056 11.9554 5.72176Z" fill="white" fill-opacity="0.8"/>
</g>
</g>
</svg>
